<svg xmlns="http://www.w3.org/2000/svg" xmlns:xlink="http://www.w3.org/1999/xlink" width="100" zoomAndPan="magnify" viewBox="0 0 75 74.999997" height="100" preserveAspectRatio="xMidYMid meet" version="1.0"><defs><g/><clipPath id="e610fb1d3b"><path d="M 7.527344 8.929688 L 67.597656 8.929688 L 67.597656 69 L 7.527344 69 Z M 7.527344 8.929688 " clip-rule="nonzero"/></clipPath><clipPath id="e9f49a8efd"><path d="M 37.527344 68.929688 C 29.515625 68.929688 21.972656 65.8125 16.316406 60.140625 C 10.644531 54.480469 7.527344 46.9375 7.527344 38.929688 C 7.527344 30.917969 10.644531 23.378906 16.316406 17.71875 C 21.972656 12.046875 29.515625 8.929688 37.527344 8.929688 C 45.535156 8.929688 53.078125 12.046875 58.738281 17.71875 C 64.40625 23.390625 67.527344 30.917969 67.527344 38.929688 C 67.527344 46.9375 64.40625 54.480469 58.738281 60.140625 C 53.078125 65.8125 45.535156 68.929688 37.527344 68.929688 M 37.527344 10.726562 C 29.996094 10.726562 22.910156 13.664062 17.585938 18.988281 C 12.261719 24.3125 9.324219 31.398438 9.324219 38.929688 C 9.324219 46.457031 12.261719 53.546875 17.585938 58.867188 C 22.910156 64.191406 29.996094 67.128906 37.527344 67.128906 C 45.054688 67.128906 52.140625 64.191406 57.464844 58.867188 C 62.789062 53.546875 65.726562 46.457031 65.726562 38.929688 C 65.726562 31.398438 62.789062 24.3125 57.464844 18.988281 C 52.140625 13.664062 45.054688 10.726562 37.527344 10.726562 " clip-rule="nonzero"/></clipPath></defs><rect x="-7.5" width="90" fill="#ffffff" y="-7.5" height="89.999996" fill-opacity="1"/><rect x="-7.5" width="90" fill="#ffffff" y="-7.5" height="89.999996" fill-opacity="1"/><g clip-path="url(#e610fb1d3b)"><g clip-path="url(#e9f49a8efd)"><path fill="#000000" d="M 7.527344 8.929688 L 67.476562 8.929688 L 67.476562 68.882812 L 7.527344 68.882812 Z M 7.527344 8.929688 " fill-opacity="1" fill-rule="nonzero"/></g></g><g fill="#000000" fill-opacity="1"><g transform="translate(21.901337, 39.639708)"><g><path d="M 4.46875 -0.03125 L 4.734375 0.453125 C 4.398438 0.742188 4.035156 0.890625 3.640625 0.890625 C 3.390625 0.890625 3.148438 0.8125 2.921875 0.65625 C 2.691406 0.507812 2.5 0.300781 2.34375 0.03125 C 1.738281 0.0195312 1.226562 -0.175781 0.8125 -0.5625 C 0.40625 -0.957031 0.203125 -1.445312 0.203125 -2.03125 C 0.203125 -2.613281 0.40625 -3.097656 0.8125 -3.484375 C 1.226562 -3.878906 1.738281 -4.078125 2.34375 -4.078125 C 2.957031 -4.078125 3.46875 -3.878906 3.875 -3.484375 C 4.289062 -3.097656 4.5 -2.613281 4.5 -2.03125 C 4.5 -1.570312 4.363281 -1.164062 4.09375 -0.8125 C 3.820312 -0.457031 3.46875 -0.210938 3.03125 -0.078125 C 3.269531 0.171875 3.5 0.296875 3.71875 0.296875 C 3.925781 0.296875 4.175781 0.1875 4.46875 -0.03125 Z M 1.3125 -3.03125 C 1.03125 -2.757812 0.890625 -2.421875 0.890625 -2.015625 C 0.890625 -1.617188 1.03125 -1.28125 1.3125 -1 C 1.601562 -0.71875 1.945312 -0.578125 2.34375 -0.578125 C 2.75 -0.578125 3.09375 -0.71875 3.375 -1 C 3.65625 -1.28125 3.796875 -1.617188 3.796875 -2.015625 C 3.796875 -2.421875 3.65625 -2.757812 3.375 -3.03125 C 3.09375 -3.3125 2.753906 -3.453125 2.359375 -3.453125 C 1.953125 -3.453125 1.601562 -3.3125 1.3125 -3.03125 Z M 1.3125 -3.03125 "/></g></g></g><g fill="#000000" fill-opacity="1"><g transform="translate(27.091045, 39.639708)"><g><path d="M 3.984375 -4.0625 L 3.984375 -1.6875 C 3.984375 -1.15625 3.828125 -0.734375 3.515625 -0.421875 C 3.203125 -0.117188 2.769531 0.03125 2.21875 0.03125 C 1.664062 0.03125 1.234375 -0.117188 0.921875 -0.421875 C 0.609375 -0.734375 0.453125 -1.15625 0.453125 -1.6875 L 0.453125 -4.0625 L 1.140625 -4.0625 L 1.140625 -1.6875 C 1.140625 -1.34375 1.234375 -1.070312 1.421875 -0.875 C 1.617188 -0.675781 1.882812 -0.578125 2.21875 -0.578125 C 2.550781 -0.578125 2.8125 -0.675781 3 -0.875 C 3.195312 -1.070312 3.296875 -1.34375 3.296875 -1.6875 L 3.296875 -4.0625 Z M 3.984375 -4.0625 "/></g></g></g><g fill="#000000" fill-opacity="1"><g transform="translate(31.92705, 39.639708)"><g><path d="M 1.21875 0 L 0.53125 0 L 0.53125 -4.0625 L 1.21875 -4.0625 Z M 1.21875 0 "/></g></g></g><g fill="#000000" fill-opacity="1"><g transform="translate(34.084176, 39.639708)"><g><path d="M 3.609375 -3.5625 L 1.140625 -0.609375 L 3.640625 -0.609375 L 3.640625 0 L 0.21875 0 L 0.21875 -0.5 L 2.6875 -3.4375 L 0.296875 -3.4375 L 0.296875 -4.0625 L 3.609375 -4.0625 Z M 3.609375 -3.5625 "/></g></g></g><g fill="#000000" fill-opacity="1"><g transform="translate(38.351934, 39.639708)"><g/></g></g><g fill="#000000" fill-opacity="1"><g transform="translate(40.25393, 39.639708)"><g><path d="M 3.15625 -0.921875 L 1.109375 -0.921875 L 0.71875 0 L 0 0 L 1.796875 -4.0625 L 2.5 -4.0625 L 4.265625 0 L 3.546875 0 Z M 2.890625 -1.53125 L 2.125 -3.328125 L 1.359375 -1.53125 Z M 2.890625 -1.53125 "/></g></g></g><g fill="#000000" fill-opacity="1"><g transform="translate(44.939176, 39.639708)"><g><path d="M 0.53125 -4.0625 L 2.15625 -4.0625 C 2.664062 -4.0625 3.054688 -3.9375 3.328125 -3.6875 C 3.609375 -3.445312 3.75 -3.109375 3.75 -2.671875 C 3.75 -2.210938 3.609375 -1.851562 3.328125 -1.59375 C 3.054688 -1.34375 2.664062 -1.21875 2.15625 -1.21875 L 1.21875 -1.21875 L 1.21875 0 L 0.53125 0 Z M 1.21875 -3.4375 L 1.21875 -1.84375 L 2.125 -1.84375 C 2.769531 -1.84375 3.09375 -2.113281 3.09375 -2.65625 C 3.09375 -3.175781 2.769531 -3.4375 2.125 -3.4375 Z M 1.21875 -3.4375 "/></g></g></g><g fill="#000000" fill-opacity="1"><g transform="translate(49.247521, 39.639708)"><g><path d="M 0.53125 -4.0625 L 2.15625 -4.0625 C 2.664062 -4.0625 3.054688 -3.9375 3.328125 -3.6875 C 3.609375 -3.445312 3.75 -3.109375 3.75 -2.671875 C 3.75 -2.210938 3.609375 -1.851562 3.328125 -1.59375 C 3.054688 -1.34375 2.664062 -1.21875 2.15625 -1.21875 L 1.21875 -1.21875 L 1.21875 0 L 0.53125 0 Z M 1.21875 -3.4375 L 1.21875 -1.84375 L 2.125 -1.84375 C 2.769531 -1.84375 3.09375 -2.113281 3.09375 -2.65625 C 3.09375 -3.175781 2.769531 -3.4375 2.125 -3.4375 Z M 1.21875 -3.4375 "/></g></g></g><g fill="#000000" fill-opacity="1"><g transform="translate(37.215784, 47.946797)"><g/></g></g></svg>